<svg xmlns="http://www.w3.org/2000/svg" width="634.033" height="406.533" viewBox="0 0 634.033 406.533">
  <g id="Group_130" data-name="Group 130" transform="translate(-124.263 -300.831)">
    <g id="Group_116" data-name="Group 116">
      <path id="Path_148" data-name="Path 148" d="M192.323,434.828l-21.409-37.082,21.409-37.082H235.14l21.41,37.082-21.41,37.082Z" fill="#00b3fe"/>
    </g>
    <g id="Group_117" data-name="Group 117">
      <path id="Path_149" data-name="Path 149" d="M643.179,426.818l-21.409-37.082,21.409-37.082H686l21.41,37.082L686,426.818Z" fill="#00b3fe"/>
    </g>
    <g id="Group_118" data-name="Group 118">
      <path id="Path_150" data-name="Path 150" d="M712.4,379.842l-12.334-21.363L712.4,337.115h24.668l12.335,21.363-12.335,21.363Z" fill="#fc6533"/>
    </g>
    <g id="Group_119" data-name="Group 119">
      <path id="Path_151" data-name="Path 151" d="M644.4,617.842l-12.334-21.364L644.4,575.115h24.668l12.335,21.363-12.335,21.364Z" fill="#fc6533"/>
    </g>
    <g id="Group_120" data-name="Group 120">
      <path id="Path_152" data-name="Path 152" d="M213.733,625.8,201.4,604.44l12.334-21.364H238.4l12.335,21.364L238.4,625.8Z" fill="#00b3fe"/>
    </g>
    <path id="Path_153" data-name="Path 153" d="M161.944,573.984l-37.681-65.266,37.681-65.266h75.362l37.683,65.266-37.683,65.266Z" fill="#032849"/>
    <path id="Path_154" data-name="Path 154" d="M281.739,502.221l-37.681-65.266,37.681-65.266H357.1l37.683,65.266L357.1,502.221Z" fill="#032849"/>
    <path id="Path_155" data-name="Path 155" d="M403.612,571.186,365.931,505.92l37.681-65.266h75.362l37.683,65.266-37.683,65.266Z" fill="#032849"/>
    <path id="Path_156" data-name="Path 156" d="M523.52,498.931l-37.681-65.266L523.52,368.4h75.362l37.683,65.266-37.683,65.266Z" fill="#032849"/>
    <path id="Path_157" data-name="Path 157" d="M645.252,566.414l-37.681-65.266,37.681-65.266h75.362L758.3,501.147l-37.683,65.266Z" fill="#032849"/>
    <g id="Group_121" data-name="Group 121">
      <path id="Path_158" data-name="Path 158" d="M401.535,431.364,363.854,366.1l37.681-65.266H476.9L514.579,366.1,476.9,431.364Z" fill="#032849"/>
    </g>
    <g id="Group_122" data-name="Group 122">
      <path id="Path_159" data-name="Path 159" d="M403.535,707.364,365.854,642.1l37.681-65.266H478.9L516.579,642.1,478.9,707.364Z" fill="#032849"/>
    </g>
    <g id="Group_123" data-name="Group 123">
      <path id="Path_160" data-name="Path 160" d="M525.86,638.806l-37.681-65.266,37.681-65.266h75.362L638.9,573.539l-37.683,65.266Z" fill="#032849"/>
    </g>
    <g id="Group_124" data-name="Group 124">
      <path id="Path_161" data-name="Path 161" d="M282.737,641.764,245.056,576.5l37.681-65.266H358.1L395.782,576.5,358.1,641.764Z" fill="#032849"/>
    </g>
    <text id="Market_Analysis" data-name="Market
Analysis" transform="translate(199.286 524.566)" fill="#fff" font-size="12" font-family="ProximaNova-Bold, Proxima Nova" font-weight="700"><tspan x="-18" y="0">Market</tspan><tspan x="-22" y="14.4">Analysis</tspan></text>
    <text id="New_Product_Launches" data-name="New Product
Launches" transform="translate(320.286 460.566)" fill="#fff" font-size="12" font-family="ProximaNova-Bold, Proxima Nova" font-weight="700"><tspan x="-35" y="0">New Product</tspan><tspan x="-25" y="14.4">Launches</tspan></text>
    <text id="Competitive_Benchmarking_" data-name="Competitive
Benchmarking
" transform="translate(439.286 392.566)" fill="#fff" font-size="12" font-family="ProximaNova-Bold, Proxima Nova" font-weight="700"><tspan x="-32" y="0">Competitive</tspan><tspan x="-39" y="14.4">Benchmarking</tspan><tspan font-family="ProximaNova-Bold"><tspan x="0" y="28.8"></tspan></tspan></text>
    <text id="Go-to-Market_Strategies_" data-name="Go-to-Market
Strategies
" transform="translate(439.286 528.566)" fill="#fff" font-size="12" font-family="ProximaNova-Bold, Proxima Nova" font-weight="700"><tspan x="-35" y="0">Go-to-Market</tspan><tspan x="-27" y="14.4">Strategies</tspan><tspan font-family="ProximaNova-Bold"><tspan x="0" y="28.8"></tspan></tspan></text>
    <text id="New_Opportunities_" data-name="New
Opportunities
" transform="translate(439.286 661.566)" fill="#fff" font-size="12" font-family="ProximaNova-Bold, Proxima Nova" font-weight="700"><tspan x="-12" y="0">New</tspan><tspan x="-37" y="14.4">Opportunities</tspan><tspan font-family="ProximaNova-Bold"><tspan x="0" y="28.8"></tspan></tspan></text>
    <text id="Market_Sizing" data-name="Market Sizing" transform="translate(320.286 606.566)" fill="#fff" font-size="12" font-family="ProximaNova-Bold, Proxima Nova" font-weight="700"><tspan x="-37" y="0">Market Sizing</tspan></text>
    <text id="Investment_Landscape_" data-name="Investment
Landscape
" transform="translate(563.286 458.566)" fill="#fff" font-size="12" font-family="ProximaNova-Bold, Proxima Nova" font-weight="700"><tspan x="-30" y="0">Investment</tspan><tspan x="-29" y="14.4">Landscape</tspan><tspan font-family="ProximaNova-Bold"><tspan x="0" y="28.8"></tspan></tspan></text>
    <text id="Regional_Demand_Supply_" data-name="Regional Demand
&amp; Supply
" transform="translate(562.286 597.566)" fill="#fff" font-size="12" font-family="ProximaNova-Bold, Proxima Nova" font-weight="700"><tspan x="-48" y="0">Regional Demand</tspan><tspan x="-24" y="14.4">&amp; Supply</tspan><tspan font-family="ProximaNova-Bold"><tspan x="0" y="28.8"></tspan></tspan></text>
    <text id="Customer_Mapping" data-name="Customer
Mapping" transform="translate(683.286 524.566)" fill="#fff" font-size="12" font-family="ProximaNova-Bold, Proxima Nova" font-weight="700"><tspan x="-26" y="0">Customer</tspan><tspan x="-23" y="14.4">Mapping</tspan></text>
    <path id="Path_162" data-name="Path 162" d="M181.353,499.519c.117-.217.243-.431.351-.653q1.07-2.2,2.132-4.406c.05-.1.107-.206.173-.332l5.607,2.624-.911,1.944-2.271-1.054a14.045,14.045,0,0,0,11.017,8.95,13.81,13.81,0,0,0,9.908-2.127,14.026,14.026,0,0,0,5.975-8.172l2.018.544a16.085,16.085,0,0,1-11.55,11.528,15.85,15.85,0,0,1-11.636-1.262,16.313,16.313,0,0,1-7.825-8.739l-1.054,2.167-1.934-.94Z" fill="#fff"/>
    <path id="Path_163" data-name="Path 163" d="M208.889,500.942H190.38v-2.123h1.552v-7.978h4.437v-3.4h4.442v-3.223H207.4v14.576h1.484ZM203,486.361v12.43h2.248v-12.43Zm-4.444,3.224v9.194h2.25v-9.194Zm-2.187,3.433h-2.26v5.765h2.26Z" fill="#fff"/>
    <path id="Path_164" data-name="Path 164" d="M209.736,488.4l.913-1.943,2.17,1.007a14.135,14.135,0,0,0-11.533-8.988,14.314,14.314,0,0,0-15.367,10.363l-2.011-.542a16.243,16.243,0,0,1,12.9-11.817,16.429,16.429,0,0,1,18.165,10.4l1.094-2.254,1.934.937-2.643,5.469Z" fill="#fff"/>
    <path id="Path_165" data-name="Path 165" d="M320.3,403h.767a4.227,4.227,0,0,1,2.107,1.687,19.286,19.286,0,0,1,3.1,6.408c.344,1.236.573,2.5.866,3.807h.356c.882,0,1.764-.006,2.645,0a.577.577,0,1,1,0,1.143c-.818.008-1.635,0-2.453,0h-.475v1.233h7.422c.773,0,.918.145.918.915v18.112h1.23V416.886c0-.662-.174-.833-.845-.833-1.035,0-2.07,0-3.105,0-.447,0-.686-.232-.665-.606.02-.347.258-.538.7-.54,1.022-.005,2.044,0,3.066,0a1.773,1.773,0,0,1,2,2.009v19.433c.623,0,1.184,0,1.746,0,.343,0,.608.163.615.5a20.758,20.758,0,0,1-.044,2.984,2.789,2.789,0,0,1-2.969,2.426H304.088c-.076,0-.153,0-.23,0a2.885,2.885,0,0,1-2.639-1.942c-.057-.168-.1-.339-.158-.509v-3.066a.785.785,0,0,1,.8-.395c.518.022,1.037.006,1.577.006v-.511q0-9.486,0-18.971a1.76,1.76,0,0,1,1.967-1.959h8.9c.04-.288.071-.539.11-.788.042-.265.087-.529.138-.792a20.94,20.94,0,0,1,3.643-8.635A4.248,4.248,0,0,1,320.3,403ZM306.97,418.46V428.2c0,.115.006.231-.005.345a.531.531,0,0,1-.538.537.539.539,0,0,1-.593-.481,1.8,1.8,0,0,1-.013-.382q0-5,0-10c0-.781.141-.924.908-.925q3.488,0,6.976,0c.147,0,.294-.012.465-.019v-1.213h-8.715c-.7,0-.864.163-.864.852v19.419h1.23v-.814c0-1.457,0-2.913,0-4.37,0-.493.354-.8.748-.66a.614.614,0,0,1,.4.665c-.006,1.585,0,3.169,0,4.753v.447c.348,0,.653-.021.955.006.268.023.364-.083.453-.329a3.088,3.088,0,0,1,2.936-2.057c.473,0,.946-.011,1.418,0a.327.327,0,0,0,.38-.268,3.035,3.035,0,0,1,1.948-1.966c.219-.076.319-.174.287-.4a4.888,4.888,0,0,1,.821-3.339,3.1,3.1,0,0,0,.237-.48.488.488,0,0,0,.048-.288c-.136-.462-.29-.918-.447-1.4-.241.107-.448.2-.654.293-1.277.58-2.549,1.174-3.838,1.728a.9.9,0,0,1-.7-.051.659.659,0,0,1-.2-.559q.544-3.441,1.142-6.874a1.472,1.472,0,0,1,.365-.682c.361-.4.766-.772,1.215-1.215Zm32.182,19.056a1.04,1.04,0,0,0-.123-.019q-5.367,0-10.733.005a.685.685,0,0,0-.421.2c-.642.622-1.257,1.273-1.911,1.882a1.11,1.11,0,0,1-.67.28c-1.072.029-2.146.015-3.219.012-.453,0-.705-.21-.708-.572s.247-.574.7-.576c.945,0,1.891,0,2.836,0a.607.607,0,0,0,.361-.068c.39-.337.759-.7,1.136-1.049l-.074-.074H314.921c.382.363.673.671,1,.934a1.073,1.073,0,0,0,.59.249c.92.026,1.84.01,2.76.012.456,0,.715.2.725.556.01.368-.26.591-.73.592-1.048,0-2.1.021-3.143-.013a1.238,1.238,0,0,1-.735-.305c-.621-.569-1.211-1.173-1.792-1.784a.875.875,0,0,0-.7-.282q-5.118.014-10.234.006h-.447v1.562a1.778,1.778,0,0,0,2.03,2.047h32.888c.128,0,.256,0,.383,0a1.69,1.69,0,0,0,1.629-1.5C339.2,438.913,339.152,438.223,339.152,437.516Zm-18.476-10.7c.932,0,1.865-.008,2.8.006.252,0,.381-.052.461-.32.373-1.246.786-2.48,1.163-3.724a18.586,18.586,0,0,0,.954-4.831,20.65,20.65,0,0,0-1.236-7.627.913.913,0,0,0-.392-.468,7.618,7.618,0,0,0-7.507.024.745.745,0,0,0-.345.413c-.345,1.292-.736,2.578-.972,3.891a13.294,13.294,0,0,0,.042,5.854c.587,2.192,1.221,4.372,1.825,6.56.062.222.2.224.374.224C318.785,426.816,319.73,426.817,320.676,426.817Zm13.7,9.526V418.464H328c.468.446.876.8,1.231,1.191a1.62,1.62,0,0,1,.395.749c.389,2.225.744,4.456,1.12,6.683.048.281.069.537-.179.731a.7.7,0,0,1-.791.005q-1.945-.9-3.9-1.781c-.168-.076-.339-.147-.531-.231-.109.356-.178.67-.3.96a1.084,1.084,0,0,0,.082,1.078,5.092,5.092,0,0,1,.9,3.509c-.035.233.1.3.291.355a2.9,2.9,0,0,1,1.862,1.7c.075.174.127.358.195.553.557,0,1.106.006,1.655,0a2.787,2.787,0,0,1,2.748,1.665,1.055,1.055,0,0,0,1.292.718A2.7,2.7,0,0,1,334.376,436.343Zm-17.882-5.991c0,.585.005,1.131,0,1.677-.005.472-.17.651-.624.705a1.933,1.933,0,0,0-1.748,1.7c-.075.538-.23.677-.768.68-.74,0-1.481-.01-2.222.006a1.748,1.748,0,0,0-1.567,1.2h22.281a1.86,1.86,0,0,0-1.642-1.2c-.69-.011-1.379,0-2.069,0s-.788-.1-.888-.761a1.793,1.793,0,0,0-1.63-1.613c-.586-.05-.73-.2-.733-.793,0-.52,0-1.04,0-1.6-.392,0-.736.019-1.077-.005a.5.5,0,0,0-.554.333c-.636,1.307-1.3,2.6-1.944,3.9-.13.262-.274.508-.6.517-.349.009-.5-.245-.638-.52q-.978-1.971-1.974-3.933c-.06-.117-.189-.272-.3-.281C317.38,430.332,316.96,430.352,316.494,430.352Zm-4.575-3.99a.823.823,0,0,0,.151-.021c1.125-.511,2.248-1.029,3.378-1.531.24-.107.183-.248.134-.431-.333-1.256-.665-2.513-.984-3.773-.119-.47-.2-.949-.319-1.512-.474.487-.888.9-1.287,1.332a.684.684,0,0,0-.135.341c-.207,1.207-.407,2.414-.609,3.621C312.139,425.039,312.031,425.69,311.919,426.362Zm13.822-1.646,3.7,1.684c-.012-.156-.012-.244-.026-.331q-.4-2.4-.809-4.8c-.044-.262-.023-.588-.172-.77a17.911,17.911,0,0,0-1.26-1.277Zm-1.72-16.35a16.487,16.487,0,0,0-2.125-3.433c-.866-1.049-1.606-1.078-2.416.025-.759,1.034-1.377,2.171-2.055,3.264-.015.024,0,.066,0,.123A9.13,9.13,0,0,1,324.021,408.366Zm-7.149,20.807H324.5c-.19-.383-.345-.73-.535-1.057a.413.413,0,0,0-.312-.142q-2.966-.014-5.931,0a.421.421,0,0,0-.316.137C317.219,428.437,317.064,428.785,316.872,429.173Zm3.816,4.068,1.434-2.867h-2.869Z" fill="#fff"/>
    <path id="Path_166" data-name="Path 166" d="M320.7,420.816a4.144,4.144,0,1,1,4.131-4.15A4.142,4.142,0,0,1,320.7,420.816Zm0-1.149a2.994,2.994,0,1,0-3-2.988A2.988,2.988,0,0,0,320.7,419.667Z" fill="#fff"/>
    <path id="Path_167" data-name="Path 167" d="M322.451,416.691a1.763,1.763,0,1,1-1.769-1.781A1.757,1.757,0,0,1,322.451,416.691Zm-1.744.589a.6.6,0,0,0,.592-.613.612.612,0,1,0-1.223.038A.6.6,0,0,0,320.707,417.28Z" fill="#fff"/>
    <path id="Path_168" data-name="Path 168" d="M297.974,555.876c.06-.129.118-.26.18-.388a2.069,2.069,0,0,1,1.9-1.3q2.345-.042,4.691,0a2.145,2.145,0,0,1,2.091,2.059c.118,1.721.236,3.442.356,5.194h2.465v-4.306h4.4v4.308h1.442V551.284h4.394v10.145h1.487V549.8h4.378v2.143c.489-.3.921-.55,1.323-.838.1-.069.127-.28.128-.425.009-1.579.006-3.158.006-4.737v-.519H331.6v4.352a10.952,10.952,0,0,1,8.462,3.2,10.669,10.669,0,0,1,3.127,6.209,10.992,10.992,0,0,1-7.3,11.952c.185,2.952.051,5.882.088,8.809.012.929.02,1.86-.008,2.788a3.636,3.636,0,0,1-6.728,1.872c-.048-.074-.095-.147-.166-.255a5.127,5.127,0,0,1-4.216,1.978,4.915,4.915,0,0,1-3.252-1.309,4.977,4.977,0,0,1-1.7-3.666,5.17,5.17,0,0,1,1.484-3.763H311.117a5.1,5.1,0,0,1,1.142,5.415,4.906,4.906,0,0,1-2.752,2.9,5.125,5.125,0,0,1-6.765-2.752,5.182,5.182,0,0,1,3.956-7.031l-1.172-17.582h-4.869a2.319,2.319,0,0,1-2.683-1.782Zm43.861,4.889a9.5,9.5,0,1,0-9.545,9.476A9.5,9.5,0,0,0,341.835,560.765Zm-11.658,13.9a.914.914,0,0,0-.037.164c0,2.627-.006,5.253,0,7.879a2.109,2.109,0,0,0,.543,1.416,2.195,2.195,0,0,0,3.845-1.53q.008-3.785,0-7.57c0-.113-.015-.227-.023-.359Zm-1.515.012h-20.6l.116,1.42h.6q8.034,0,16.067,0a5.206,5.206,0,0,1,3.572,1.3,1.934,1.934,0,0,0,.245.154Zm-21.169,10.193a3.65,3.65,0,1,0-3.671-3.645A3.665,3.665,0,0,0,307.493,584.867Zm17.485,0a3.649,3.649,0,1,0-3.613-3.706A3.662,3.662,0,0,0,324.978,584.865ZM312.4,562.96l.292,4.328h4.258V562.96Zm.393,5.855.288,4.316h3.879v-4.316Zm9.835,0h-4.157v4.324h3.868Zm.922-1.53a11.4,11.4,0,0,1-1.963-4.306h-3.118v4.306Zm-15.978,0h3.651l-.29-4.306h-3.648Zm3.752,1.544h-3.649l.29,4.3h3.649Zm17.513,2.317c-.074-.032-.177-.083-.286-.122a9.78,9.78,0,0,1-3.218-1.883,1.346,1.346,0,0,0-1.236-.315l-.289,4.3h4.82Zm-10.434-9.7v-8.726h-1.385v8.726Zm-12.987-4.356c-.012-.283-.009-.5-.035-.72a.744.744,0,0,0-.814-.751q-2.163-.015-4.326,0a.736.736,0,1,0,0,1.467c.529.016,1.059,0,1.589,0Zm29.159,16.049c-.054-.482-.078-.907-.163-1.32a.44.44,0,0,0-.353-.248,10.854,10.854,0,0,1-3.474-.006.374.374,0,0,0-.308.2c-.084.449-.125.906-.183,1.379Zm-4.48-23.158v-3.107h-1.381v3.513Zm-7.24,5.155c.465-.6.9-1.15,1.324-1.7a.371.371,0,0,0,.093-.192c.007-.656,0-1.312,0-1.969h-1.421Zm-10.287,3.434h-1.4v2.865h1.4Z" fill="#fff"/>
    <path id="Path_169" data-name="Path 169" d="M331.173,541l-7.57,7.553-2.87-2.881-10.475,10.48-1.009-1.032,11.394-11.4,2.775,2.794,4.021-4.033H323.56V541Z" fill="#fff"/>
    <path id="Path_170" data-name="Path 170" d="M340.378,560.735a8.046,8.046,0,1,1-8.061-8.039A8.07,8.07,0,0,1,340.378,560.735Zm-8.047-6.563a6.571,6.571,0,1,0,6.578,6.577A6.557,6.557,0,0,0,332.331,554.172Z" fill="#fff"/>
    <path id="Path_171" data-name="Path 171" d="M309.664,581.233a2.185,2.185,0,1,1-2.17-2.21A2.191,2.191,0,0,1,309.664,581.233Zm-2.187-.741a.736.736,0,0,0-.73.735.729.729,0,0,0,1.458,0A.735.735,0,0,0,307.477,580.492Z" fill="#fff"/>
    <path id="Path_172" data-name="Path 172" d="M327.207,581.2a2.183,2.183,0,1,1-2.2-2.181A2.185,2.185,0,0,1,327.207,581.2Zm-2.912-.034a.731.731,0,0,0,1.459.093.731.731,0,0,0-1.459-.093Z" fill="#fff"/>
    <path id="Path_173" data-name="Path 173" d="M331.6,557.064V555.65h1.438v1.416a2.2,2.2,0,0,1,1.8.95,8.6,8.6,0,0,1,.534,1.258c-.561,0-.982.012-1.4-.01-.078,0-.179-.131-.218-.223a.767.767,0,0,0-.763-.5c-.443,0-.886-.012-1.328,0a.735.735,0,1,0-.007,1.467c.456.02.914,0,1.371.008a2.185,2.185,0,0,1,.239,4.361c-.044.006-.086.018-.183.038v1.414h-1.451v-1.414a2.2,2.2,0,0,1-1.82-.981,8.427,8.427,0,0,1-.506-1.237c.551,0,.961-.011,1.369.01a.347.347,0,0,1,.228.2.78.78,0,0,0,.788.527c.443,0,.886.014,1.327,0a.736.736,0,1,0-.012-1.468c-.442-.017-.885,0-1.327-.006a2.186,2.186,0,0,1-.268-4.363C331.455,557.1,331.5,557.085,331.6,557.064Z" fill="#fff"/>
    <g id="Group_125" data-name="Group 125">
      <path id="Path_174" data-name="Path 174" d="M449.069,355.268l2.769,2.764c1.032-.8,1.124-.789,2.1.19q1.04,1.038,2.077,2.077c.638.639.643,1.033.025,1.687-.04.043-.076.09-.135.16.1.112.2.224.3.327.969.97,1.948,1.931,2.906,2.911a3.991,3.991,0,0,1,1.01,4.367,3.945,3.945,0,0,1-3.495,2.736,4.022,4.022,0,0,1-3.4-1.244q-1.431-1.415-2.844-2.846a3,3,0,0,1-.274-.366.931.931,0,0,0-.172.068c-.8.743-1.1.737-1.881-.04q-1.039-1.038-2.077-2.078c-.858-.857-.869-1.081-.125-1.946l-2.809-2.806a16.032,16.032,0,0,1-13.237,1.2,15.77,15.77,0,0,1-8.618-7,16.166,16.166,0,1,1,27.875-.16ZM435.09,332.792a14.359,14.359,0,1,0,14.317,14.418A14.366,14.366,0,0,0,435.09,332.792Zm16.322,33.919c1.116,1.156,2.236,2.352,3.4,3.5a1.94,1.94,0,0,0,1.641.48,2.344,2.344,0,0,0,1.433-3.979c-.966-.993-1.954-1.964-2.934-2.943-.111-.111-.231-.215-.311-.29Zm-6.59-6.543,2.385,2.4,3.2-3.2-2.388-2.381Zm8.062-.391-5.226,5.209L449,366.35l5.233-5.231Z" fill="#fff"/>
      <path id="Path_175" data-name="Path 175" d="M431.2,370.343h-.53q-4.2,0-8.4,0a2.736,2.736,0,0,1-2.806-1.969,2.669,2.669,0,0,1,2.418-3.433c1.414-.053,2.832-.02,4.247-.021,3.118,0,6.236-.008,9.354,0a2.676,2.676,0,0,1,2.84,2.551,7.622,7.622,0,0,1-.076,1.039c.133.007.288.022.443.022,1.958,0,3.916-.013,5.874.005a2.7,2.7,0,0,1,2.488,3.979,2.6,2.6,0,0,1-2.4,1.433c-3.6.017-7.2.032-10.8,0a2.683,2.683,0,0,1-2.652-3.418A1.181,1.181,0,0,0,431.2,370.343Zm-2.374-1.808h6.417c.853,0,1.289-.318,1.276-.928-.012-.592-.426-.88-1.269-.88H422.42a3.564,3.564,0,0,0-.5.02.858.858,0,0,0-.749.83c-.027.6.377.955,1.1.956Q425.554,368.539,428.831,368.535Zm10.442,1.808q-2.034,0-4.067,0c-.482,0-.965-.013-1.446.013a.851.851,0,0,0-.832.844.866.866,0,0,0,.752.921,2.493,2.493,0,0,0,.449.028q5.107,0,10.213,0a2.251,2.251,0,0,0,.581-.056.883.883,0,0,0,.517-1.307.964.964,0,0,0-.925-.444Q441.893,370.348,439.273,370.343Z" fill="#fff"/>
      <path id="Path_176" data-name="Path 176" d="M456.464,338.724h1.742V346.8h-1.742Z" fill="#fff"/>
      <path id="Path_177" data-name="Path 177" d="M458.2,332.4v3.554h-1.76v-1.763h-3.608V332.4Z" fill="#fff"/>
      <path id="Path_178" data-name="Path 178" d="M453.708,339.6v-1.809h-1.773V336h1.748l.051-.879h1.788V336.2c0,1.008-.009,2.016.005,3.023.005.3-.089.4-.386.387C454.693,339.588,454.243,339.6,453.708,339.6Z" fill="#fff"/>
      <path id="Path_179" data-name="Path 179" d="M435.081,339.7a7.464,7.464,0,1,1-7.468,7.413A7.463,7.463,0,0,1,435.081,339.7Zm5.377,8.948h-.527c-1.507,0-3.013-.012-4.519.007a1.576,1.576,0,0,1-1.211-.483c-.555-.551-1.142-1.072-1.716-1.6q-1.153-1.069-2.313-2.141a5.516,5.516,0,0,0,.214,5.88,5.619,5.619,0,0,0,6,2.346A5.516,5.516,0,0,0,440.458,348.644Zm-4.486-7.011c0,1.667,0,3.307.016,4.947,0,.087.23.24.356.244.722.024,1.446.012,2.169.012h2.157C440.787,344.479,438.281,341.689,435.972,341.633Zm-4.7,1.338,2.855,2.643v-4.023A5.569,5.569,0,0,0,431.269,342.971Z" fill="#fff"/>
      <path id="Path_180" data-name="Path 180" d="M423.123,346.906a11.934,11.934,0,0,1,23.71-1.676,11.6,11.6,0,0,1-5.161,11.862.913.913,0,0,1-1.392-.114c-.335-.468-.2-.974.38-1.377a9.944,9.944,0,0,0,4.481-9.389,10.113,10.113,0,0,0-20-1.026,9.815,9.815,0,0,0,2.48,8.832c.09.1.188.2.276.3a.9.9,0,1,1-1.316,1.227,11.739,11.739,0,0,1-2.576-3.891A12.46,12.46,0,0,1,423.123,346.906Z" fill="#fff"/>
    </g>
    <path id="Path_181" data-name="Path 181" d="M451.248,505.416c0,.824.005,1.487,0,2.15a1.869,1.869,0,0,1-1.943,1.958q-12.232.008-24.467,0a1.885,1.885,0,0,1-1.954-1.874c0-.081,0-.163,0-.244q0-15.918,0-31.834a2.963,2.963,0,0,1,.1-.8,1.845,1.845,0,0,1,1.77-1.314c.652-.009,1.3-.007,1.957-.011.012,0,.024-.013.08-.044.007-.156.013-.34.025-.523a1.879,1.879,0,0,1,1.937-1.846c1.1-.011,2.2,0,3.3,0q7.441,0,14.884-.007a1.5,1.5,0,0,1,1.155.477q3.273,3.294,6.575,6.562a1.576,1.576,0,0,1,.512,1.218c-.013,6.839-.006,13.678-.015,20.516a.8.8,0,0,0,.34.714c1.487,1.163,2.959,2.345,4.434,3.523a2.356,2.356,0,0,1,.418,3.594c-.269.341-.534.685-.807,1.023a2.338,2.338,0,0,1-3.369.41c-1.415-1.1-2.806-2.231-4.219-3.334A3.4,3.4,0,0,0,451.248,505.416Zm-4.765-32.777h-17.41c-.661,0-.663,0-.663.656q0,14.98,0,29.962c0,.631.017.649.634.649h20.879c-.026-.2-.04-.359-.071-.516s-.031-.352-.127-.433c-.832-.7-1.683-1.368-2.536-2.053-.092.06-.172.11-.249.164a9.19,9.19,0,0,1-4.707,1.64,9.357,9.357,0,1,1,8.047-5.877.454.454,0,0,0,.178.637c.627.477,1.259.952,1.838,1.483a1.067,1.067,0,0,0,1.24.242V479.8c-.17,0-.305-.007-.439,0-1.4.082-2.793.182-4.191.244a2.171,2.171,0,0,1-2.421-2.331c-.006-1.533,0-3.066,0-4.6ZM426.8,475.058c-.6,0-1.143,0-1.684,0-.622,0-.631.01-.631.643v31.584c0,.624.005.628.646.628h23.852a.777.777,0,0,0,.321-.01c.125-.064.31-.181.314-.281.028-.686.014-1.375.014-2.112h-10.5q-5.137,0-10.275,0a1.878,1.878,0,0,1-1.958-1.342,3.524,3.524,0,0,1-.091-.925q-.006-13.777,0-27.555Zm14.847,10.577a7.746,7.746,0,1,0-.071,15.492,7.746,7.746,0,0,0,.071-15.492Zm9.878,17.69c1.913,1.518,3.787,3.014,5.673,4.495a.711.711,0,0,0,1.049-.13c.282-.329.541-.677.809-1.019.491-.628.457-.92-.173-1.423q-2.592-2.065-5.186-4.129c-.079-.063-.171-.112-.271-.177Zm.88-25.1-4.333-4.326v3.411c0,1.092.06,1.159,1.155,1.106C450.3,478.369,451.361,478.294,452.41,478.23Zm-.705,22.29-2.342-1.883-.952,1.187,2.344,1.889Z" fill="#fff"/>
    <path id="Path_182" data-name="Path 182" d="M438.035,480.863h5.621c.122,0,.244-.005.366.005a.794.794,0,0,1,.061,1.581,2.882,2.882,0,0,1-.446.018h-11.2c-.081,0-.163,0-.244,0-.562-.017-.93-.341-.924-.814s.375-.788.943-.789Q435.123,480.859,438.035,480.863Z" fill="#fff"/>
    <path id="Path_183" data-name="Path 183" d="M438.018,476.222c-1.942,0-3.883,0-5.825,0-.693,0-1.141-.578-.833-1.113a1.432,1.432,0,0,1,.692-.477,1.665,1.665,0,0,1,.605-.019h10.875c.1,0,.191,0,.286,0,.59.009.972.332.965.815s-.386.794-.982.794Q440.909,476.224,438.018,476.222Z" fill="#fff"/>
    <path id="Path_184" data-name="Path 184" d="M438.011,479.334c-1.941,0-3.882,0-5.824,0a.816.816,0,0,1-.851-.494.776.776,0,0,1,.6-1.077,2.891,2.891,0,0,1,.447-.019H443.66c.748,0,1.135.28,1.124.81s-.382.778-1.112.779Z" fill="#fff"/>
    <path id="Path_185" data-name="Path 185" d="M447.749,493.369a6.157,6.157,0,0,1-12.313.085,6.217,6.217,0,0,1,6.215-6.226A6.141,6.141,0,0,1,447.749,493.369Zm-9.936-2.389,8.086,3.74a4.487,4.487,0,0,0-8.086-3.74Zm7.339,5.163-7.956-3.679a4.488,4.488,0,0,0,7.956,3.679Z" fill="#fff"/>
    <g id="Group_126" data-name="Group 126">
      <path id="Path_186" data-name="Path 186" d="M437.2,632.306a5.075,5.075,0,1,1,5.61-.009c.167.069.316.133.467.193a8.874,8.874,0,0,1,5.6,8.183c.006.843,0,1.685,0,2.553h-17.7c-.341-3.543.179-6.8,3.082-9.258A9.2,9.2,0,0,1,437.2,632.306Zm2.831-8.046a3.8,3.8,0,1,0,3.768,3.834A3.813,3.813,0,0,0,440.036,624.26Zm-2.383,9.247,2.3,6.954.093-.006,2.3-6.953A7.451,7.451,0,0,0,437.653,633.507Zm9.929,8.47a8.033,8.033,0,0,0-1.683-6.029,7.939,7.939,0,0,0-.168.917.794.794,0,0,1-.447.685c-.372.22-.722.477-1.19.791l1.348,1.178-2.478,2.458Zm-15.173-.025h4.7l.079-.113-2.536-2.509,1.144-1.069c-.329-.218-.636-.448-.967-.635a.972.972,0,0,1-.581-.861,5.5,5.5,0,0,0-.139-.773C432.907,637.125,432.222,639.552,432.409,641.952Zm11.122-7.987-1.363,4.13c.806-.538,1.517-1.008,2.222-1.487a.382.382,0,0,0,.129-.226c.086-.438.174-.876.23-1.318a.459.459,0,0,0-.134-.362C444.284,634.449,443.926,634.229,443.531,633.965Zm-7.053.033c-.18.1-.32.171-.454.252-.854.52-.853.521-.666,1.484.04.206.07.415.117.62a.409.409,0,0,0,.112.237c.711.484,1.429.956,2.243,1.5Zm1.385,4.186-1.257,1.231,2.49,2.5Zm4.286-.045L440.879,642l2.564-2.556Z" fill="#fff"/>
      <path id="Path_187" data-name="Path 187" d="M432.354,614.866l-2.174,2.111,5.586,5.366L431.1,627l-5.357-5.554-2.131,2.149-2.186-10.905Zm1.623,7.517-5.629-5.408,1.394-1.338-6.7-1.333,1.361,6.79,1.379-1.436,5.357,5.554Z" fill="#fff"/>
      <path id="Path_188" data-name="Path 188" d="M456.383,623.6l-2.139-2.145-5.363,5.562-4.663-4.656,5.55-5.333-2.175-2.144,10.975-2.191Zm-4.742-6.611-5.6,5.378,2.834,2.827,5.381-5.58,1.351,1.4,1.34-6.7-6.728,1.343Z" fill="#fff"/>
      <path id="Path_189" data-name="Path 189" d="M436.842,614.12h-3.1L440,604.757l6.251,9.357h-3.063v7.58h-6.345ZM440,607.04l-3.893,5.831h2v7.558h3.8V612.86h1.974Z" fill="#fff"/>
      <path id="Path_190" data-name="Path 190" d="M422.225,604a1.9,1.9,0,1,1-1.89,1.89A1.907,1.907,0,0,1,422.225,604Zm.643,1.9a.631.631,0,1,0-.636.626A.637.637,0,0,0,422.868,605.9Z" fill="#fff"/>
      <path id="Path_191" data-name="Path 191" d="M457.772,607.8a1.9,1.9,0,1,1,1.891-1.889A1.909,1.909,0,0,1,457.772,607.8Zm.62-1.882a.631.631,0,1,0-.648.614A.639.639,0,0,0,458.392,605.914Z" fill="#fff"/>
      <path id="Path_192" data-name="Path 192" d="M457.763,643.251a1.9,1.9,0,1,1,1.9-1.881A1.909,1.909,0,0,1,457.763,643.251Zm.009-2.528a.63.63,0,1,0,.62.64A.637.637,0,0,0,457.772,640.723Z" fill="#fff"/>
      <path id="Path_193" data-name="Path 193" d="M424.139,641.359a1.9,1.9,0,1,1-1.875-1.9A1.909,1.909,0,0,1,424.139,641.359Zm-1.271,0a.631.631,0,1,0-.64.621A.638.638,0,0,0,422.868,641.362Z" fill="#fff"/>
      <path id="Path_194" data-name="Path 194" d="M422.227,627.425a1.9,1.9,0,1,1-1.892,1.889A1.909,1.909,0,0,1,422.227,627.425Zm.641,1.885a.631.631,0,1,0-.618.644A.638.638,0,0,0,422.868,629.31Z" fill="#fff"/>
      <path id="Path_195" data-name="Path 195" d="M459.663,629.314a1.9,1.9,0,1,1-1.892-1.889A1.91,1.91,0,0,1,459.663,629.314Zm-1.271-.009a.631.631,0,1,0-.612.649A.638.638,0,0,0,458.392,629.3Z" fill="#fff"/>
      <path id="Path_196" data-name="Path 196" d="M424.552,609.044l-.842-.8.894-.845.758.923Z" fill="#fff"/>
      <path id="Path_197" data-name="Path 197" d="M424.628,638.175l.787.827-.856.834-.79-.877Z" fill="#fff"/>
      <path id="Path_198" data-name="Path 198" d="M431.734,628.713v1.215h-1.225v-1.215Z" fill="#fff"/>
      <path id="Path_199" data-name="Path 199" d="M449.494,629.939h-1.22v-1.224h1.22Z" fill="#fff"/>
      <path id="Path_200" data-name="Path 200" d="M452.026,629.949h-1.21v-1.23h1.21Z" fill="#fff"/>
      <path id="Path_201" data-name="Path 201" d="M453.342,628.708h1.219v1.224h-1.219Z" fill="#fff"/>
      <path id="Path_202" data-name="Path 202" d="M427.968,628.709h1.218v1.222h-1.218Z" fill="#fff"/>
      <path id="Path_203" data-name="Path 203" d="M426.646,629.943h-1.212v-1.231h1.212Z" fill="#fff"/>
      <path id="Path_204" data-name="Path 204" d="M426.4,636.368l.847.852-.869.808-.794-.868Z" fill="#fff"/>
      <path id="Path_205" data-name="Path 205" d="M453.606,636.372l.821.835-.825.8-.871-.8Z" fill="#fff"/>
      <path id="Path_206" data-name="Path 206" d="M453.619,610.908l-.877-.873.876-.859.857.854Z" fill="#fff"/>
      <path id="Path_207" data-name="Path 207" d="M425.6,609.949l.765-.771.862.877-.876.8Z" fill="#fff"/>
      <path id="Path_208" data-name="Path 208" d="M455.434,607.4l.852.846-.932.81-.763-.8Z" fill="#fff"/>
      <path id="Path_209" data-name="Path 209" d="M456.28,639.008l-.847.846-.845-.894.833-.793Z" fill="#fff"/>
      <path id="Path_210" data-name="Path 210" d="M451.83,636.255l-.814-.807.869-.842.755.828Z" fill="#fff"/>
      <path id="Path_211" data-name="Path 211" d="M451.006,611.79l.823-.8.779.9-.79.734Z" fill="#fff"/>
      <path id="Path_212" data-name="Path 212" d="M428.123,636.237l-.821-.808.845-.793.807.888Z" fill="#fff"/>
      <path id="Path_213" data-name="Path 213" d="M428.111,612.626l-.793-.8.907-.778.747.782Z" fill="#fff"/>
    </g>
    <g id="Group_127" data-name="Group 127">
      <path id="Path_214" data-name="Path 214" d="M573.254,441.076a19.5,19.5,0,0,1-2.825-.783,9.818,9.818,0,0,1-4.4-14.417,1.4,1.4,0,0,0,.177-.708q.015-6.954.008-13.909c0-1.006.3-1.317,1.3-1.319,1.112,0,2.223-.005,3.335,0,.848.005,1.188.344,1.189,1.182q0,5,0,10v.586l1.886-.237v-.548q0-7.43,0-14.861c0-.94.307-1.249,1.258-1.252,1.128,0,2.255-.007,3.383,0,.865.006,1.178.324,1.178,1.18q0,8.383-.006,16.767a.773.773,0,0,0,.345.706,9.777,9.777,0,0,1-4.65,17.528,1.646,1.646,0,0,0-.267.082Zm.916-1.992a7.812,7.812,0,1,0-7.77-7.764A7.8,7.8,0,0,0,574.17,439.084Zm3.547-16.985V406.811H575.9v13.931a4.092,4.092,0,0,0,.012.665.415.415,0,0,0,.229.283C576.653,421.842,577.175,421.962,577.717,422.1Zm-7.647-10.158h-1.831v11.535c.5-.3.947-.6,1.429-.835a.643.643,0,0,0,.409-.695c-.012-3.171-.007-6.342-.007-9.513Z" fill="#fff"/>
      <path id="Path_215" data-name="Path 215" d="M562.1,403.248c-1.392,1.4-2.7,2.716-4.012,4.03q-6.988,6.99-13.98,13.977a3.441,3.441,0,0,1-.46.412.96.96,0,0,1-1.257-.144.929.929,0,0,1-.054-1.257,3.68,3.68,0,0,1,.325-.348l18.426-18.423c.731-.73,1.213-.735,1.94-.015q1.54,1.524,3.078,3.052c.122.122.25.237.385.364l10.484-10.605c-.028,0-.161-.019-.295-.019-1.222,0-2.445.006-3.668,0-.7,0-1.166-.4-1.168-.983a1.025,1.025,0,0,1,1.152-.995q3.24-.01,6.479-.007a1,1,0,0,1,1.109,1.087q.011,3.286-.007,6.573a1.012,1.012,0,0,1-.99,1.111,1.031,1.031,0,0,1-.989-1.159c0-1.364,0-2.727,0-4.206-.183.174-.3.283-.418.4q-5.255,5.256-10.506,10.512c-.112.113-.223.226-.337.337a.991.991,0,0,1-1.64,0q-1.63-1.637-3.253-3.281C562.329,403.549,562.238,403.418,562.1,403.248Z" fill="#fff"/>
      <path id="Path_216" data-name="Path 216" d="M558.508,425.448q0-4.263,0-8.527c0-1.033.33-1.358,1.375-1.359,1.064,0,2.128,0,3.192,0,.9,0,1.26.345,1.261,1.227q0,8.694,0,17.388c0,.893-.346,1.229-1.249,1.233q-1.667.007-3.335,0c-.887,0-1.242-.358-1.243-1.245Q558.5,429.807,558.508,425.448Zm3.827,7.969V417.578h-1.821v15.839Z" fill="#fff"/>
      <path id="Path_217" data-name="Path 217" d="M550.719,426.593q0-3.714,0-7.428c0-1.016.318-1.327,1.343-1.328,1.1,0,2.191,0,3.287,0a1.044,1.044,0,0,1,1.2,1.195q.006,7.548,0,15.1a1.029,1.029,0,0,1-1.161,1.185c-1.159.014-2.318.012-3.476,0-.84-.008-1.186-.357-1.188-1.2Q550.714,430.356,550.719,426.593Zm3.817,6.822V419.854h-1.825v13.561Z" fill="#fff"/>
      <path id="Path_218" data-name="Path 218" d="M542.925,430.823c0-1.11,0-2.22,0-3.33,0-.8.363-1.163,1.164-1.168q1.737-.009,3.474,0c.806,0,1.181.388,1.183,1.209q0,3.282,0,6.565c0,.831-.357,1.2-1.177,1.214q-1.737.02-3.474,0c-.832-.009-1.167-.364-1.17-1.208C542.922,433.012,542.925,431.917,542.925,430.823Zm3.806,2.605v-5.09h-1.8v5.09Z" fill="#fff"/>
      <path id="Path_219" data-name="Path 219" d="M571.028,433.955c-.02-.781.332-1.213.883-1.256a1.007,1.007,0,0,1,1.057.991,1.234,1.234,0,0,0,1.068,1.21,1.224,1.224,0,0,0,.4-2.414c-.312-.057-.635-.053-.943-.123a3.164,3.164,0,0,1-2.438-2.675,3.1,3.1,0,0,1,1.7-3.279c.513-.238.76-.472.7-1.064a.889.889,0,0,1,.772-.895.921.921,0,0,1,1.036.493,1.509,1.509,0,0,1,.135.687.8.8,0,0,0,.474.855,3.024,3.024,0,0,1,1.563,2.52,1.015,1.015,0,0,1-.926,1.206c-.578.038-.983-.356-1.064-1.034a1.233,1.233,0,0,0-2.385-.378,1.2,1.2,0,0,0,.472,1.461,1.913,1.913,0,0,0,.808.226,3.226,3.226,0,0,1,3.009,2.477,3.171,3.171,0,0,1-1.6,3.547.586.586,0,0,0-.368.624.975.975,0,1,1-1.945.1.533.533,0,0,0-.4-.576A3.1,3.1,0,0,1,571.028,433.955Z" fill="#fff"/>
    </g>
    <g id="Group_128" data-name="Group 128">
      <path id="Path_220" data-name="Path 220" d="M588.237,574.574a1.289,1.289,0,0,1-1.3.686c-1.273-.033-2.548-.008-3.822-.011-.847,0-1.133-.256-1.259-1.158h-2.12c-1.021,0-1.194-.125-1.506-1.108-.5,0-1.014-.016-1.524.009a.98.98,0,0,0-.454.2,19.32,19.32,0,0,1-29.577-10.516c-.257-.876-.416-1.781-.637-2.738h-.449c-1.258,0-2.517,0-3.775,0a1.177,1.177,0,0,1-1.3-1.295q0-8.017,0-16.034a1.173,1.173,0,0,1,1.272-1.286c.994-.016,1.989-.012,2.983,0,.513.005.811.28.81.7s-.289.684-.813.688c-.93.007-1.86,0-2.823,0v15.794h6.473V542.747c-.124-.015-.244-.026-.362-.045a.687.687,0,0,1-.055-1.346,2.146,2.146,0,0,1,.508-.038c1.833,0,3.667.007,5.5-.012a1.522,1.522,0,0,0,.774-.224,19.339,19.339,0,0,1,29.353,12.276c.125.607.214,1.223.287,1.839.068.582-.137.89-.57.945-.453.058-.754-.227-.816-.8a16.073,16.073,0,0,0-1.319-5.021,17.6,17.6,0,0,0-14.684-10.8,17,17,0,0,0-9.342,1.559c-.095.044-.187.1-.409.21.286.013.443.027.6.027q2.8,0,5.593,0c1.088,0,1.492.4,1.493,1.487q0,2.307,0,4.614v.543h3.132c0-.531.008-1.054,0-1.577a.991.991,0,0,1,1.646-.837c1.916,1.406,3.838,2.8,5.75,4.213a.99.99,0,0,1-.019,1.761q-2.852,2.1-5.711,4.186a1.026,1.026,0,0,1-1.132.149.984.984,0,0,1-.534-1c.011-.509,0-1.018,0-1.556h-3.106c-.009.171-.025.334-.025.5,0,1.585,0,3.17,0,4.754,0,.973-.424,1.389-1.393,1.389H547.535A17.9,17.9,0,0,0,573.9,572.982h-.6c-2.921,0-5.842-.006-8.763,0a5.636,5.636,0,0,1-2.433-.523c-2.351-1.088-4.712-2.154-7.066-3.233a2.4,2.4,0,1,1,1.839-4.441c2.426.906,4.845,1.832,7.272,2.736a2.587,2.587,0,0,0,.857.16c1.4.016,2.8.007,4.2.007l.279,0c.313,0,.524-.151.531-.462.007-.336-.207-.5-.543-.5-1.01,0-2.02,0-3.029,0a2.569,2.569,0,0,1-2.171-1.069,2.373,2.373,0,0,1-.276-2.47,2.309,2.309,0,0,1,2.032-1.491c.835-.06,1.677-.035,2.515-.024a.66.66,0,0,1,.715.691.673.673,0,0,1-.724.689c-.76.024-1.522,0-2.283.022a1.028,1.028,0,0,0-.993.719.963.963,0,0,0,.288,1.182,1.938,1.938,0,0,0,.976.338c.961.045,1.926.012,2.889.017a1.881,1.881,0,1,1,.024,3.754c-1.538.01-3.077.017-4.614-.008a3.489,3.489,0,0,1-1.128-.233c-2.384-.884-4.761-1.79-7.141-2.686a2.422,2.422,0,0,0-.532-.158.973.973,0,0,0-1.082.686.962.962,0,0,0,.465,1.153c.325.181.671.322,1.01.477,2.116.968,4.225,1.952,6.354,2.89a3.956,3.956,0,0,0,1.521.358c4.552.028,9.1.016,13.656.016.092,0,.183-.008.312-.014v-5.19c-1.193.121-1.747-.777-2.36-1.574a3.783,3.783,0,0,0-2.238-1.638,10.887,10.887,0,0,0-1.343-.1,5.491,5.491,0,0,1-.6-.034.625.625,0,0,1-.559-.689.614.614,0,0,1,.593-.659,5.175,5.175,0,0,1,4.941,1.879c.294.382.587.767.914,1.118a3.584,3.584,0,0,0,.7.44c0-.489-.012-.811,0-1.132a1,1,0,0,1,1.092-1.063c.82-.01,1.641,0,2.486,0a1.131,1.131,0,0,1,.607-1.108.54.54,0,0,0,.172-.351c.154-.886.3-1.773.438-2.662.082-.541.353-.813.8-.758s.661.4.589.941c-.12.9-.255,1.807-.393,2.775h2.12c.295,0,.591.016.885,0a1.135,1.135,0,0,1,1.151.7Zm-24.7-31.819h-3.392v.547c0,.932.009,1.865,0,2.8-.01.718-.356,1.114-1.031,1.122q-2.4.029-4.8,0a.973.973,0,0,1-1.03-1.071c0-.186,0-.373,0-.559v-2.834h-3.415v15.757h13.665v-5.248c-.81,0-1.584,0-2.359,0-.883,0-1.223-.331-1.229-1.2q-.011-1.445,0-2.889c.006-.838.356-1.175,1.2-1.178.788,0,1.576,0,2.393,0Zm23.279,31.076v-10.64h-3.5v10.64Zm-12.5-23.2-4.826-3.531c0,.419,0,.727,0,1.036,0,.911-.353,1.257-1.276,1.258h-6.853v2.472h.574c2.113,0,4.226-.005,6.339,0,.867,0,1.211.362,1.216,1.224,0,.329,0,.658,0,1.07Zm5.4,13.7v8.318h2.129v-8.318Zm-25.03-18.507c1.293,0,2.545,0,3.8-.009.084,0,.239-.124.241-.193.016-.955.01-1.911.01-2.878h-4.049Z" fill="#fff"/>
    </g>
    <g id="Group_129" data-name="Group 129">
      <path id="Path_221" data-name="Path 221" d="M659.7,468a1.47,1.47,0,0,1,1.514-.88q21.487.021,42.975.011c1.094,0,1.487.391,1.491,1.477,0,.359,0,.717,0,1.087.98.144,2.137-.326,2.627.958v32.6a1.428,1.428,0,0,1-1.529.931q-15.426-.017-30.852-.008a2.48,2.48,0,0,1-.473-.022.659.659,0,0,1-.593-.733.647.647,0,0,1,.67-.658c.173-.012.348-.007.522-.007h30.792V471.181H705.7c-.009.177-.024.358-.024.539q0,2.961,0,5.922a3.327,3.327,0,0,1-.021.519.694.694,0,0,1-1.352.073,2.249,2.249,0,0,1-.048-.563q0-4.264,0-8.528v-.554H661.158v31.5h43.094v-.6q0-8.835,0-17.671a2.838,2.838,0,0,1,.039-.612.641.641,0,0,1,.729-.534.634.634,0,0,1,.636.589,3.394,3.394,0,0,1,.018.473q0,9.144,0,18.287c0,1.153-.382,1.531-1.538,1.531h-40.36v1.2h8.039a4.684,4.684,0,0,1,.474.011.642.642,0,0,1,.63.648.65.65,0,0,1-.542.726,2,2,0,0,1-.471.034q-4.035,0-8.069,0c-1.106,0-1.512-.407-1.516-1.515,0-.345,0-.691,0-1.075-.943-.152-2.092.327-2.627-.892Z" fill="#fff"/>
      <path id="Path_222" data-name="Path 222" d="M692.39,485.2h-2.959c-.009.165-.022.3-.022.441,0,2.243.01,4.486-.01,6.728-.005.459.146.623.6.61.787-.022,1.574-.006,2.427-.006,0-.331-.008-.61,0-.888a.979.979,0,0,1,1.033-1.051q3.228-.018,6.456,0a1,1,0,0,1,1.068,1.074c.013.821.014,1.643,0,2.464a.96.96,0,0,1-1,1.04q-3.275.031-6.55,0c-.651-.006-.889-.306-1.075-1.219-.6,0-1.207,0-1.819,0-.316,0-.634.009-.948-.019a1.687,1.687,0,0,1-1.608-1.722c-.01-.564,0-1.128,0-1.716H684.8a1.262,1.262,0,0,0-.036.186c-.036,1.1-.307,1.363-1.394,1.364q-2.943,0-5.887,0c-.955,0-1.277-.329-1.279-1.282q0-1.02,0-2.038c0-.944.332-1.267,1.3-1.269.739,0,1.479,0,2.241,0v-2.682h-6.737a2.149,2.149,0,0,0-.035.228c-.051,1.053-.333,1.319-1.4,1.321q-1.021,0-2.041.008a.546.546,0,0,0-.116.041v4.622h2.13c1.1,0,1.423.317,1.424,1.4,0,.679.007,1.358,0,2.037a1.044,1.044,0,0,1-1.175,1.166q-3.11.008-6.219,0a1.023,1.023,0,0,1-1.174-1.159c-.012-.773-.014-1.548,0-2.321a1,1,0,0,1,1.121-1.118c.789-.018,1.58,0,2.405,0v-4.673c-.708,0-1.429,0-2.15,0-1.078,0-1.378-.3-1.38-1.376,0-.664-.006-1.327,0-1.99.008-.869.344-1.208,1.206-1.215.771-.007,1.542,0,2.335,0v-4.2a3.831,3.831,0,0,1-2.626-2.041,3.652,3.652,0,0,1-.283-2.535,3.756,3.756,0,1,1,4.377,4.583v4.193h1.4c.316,0,.633,0,.949,0,.858.012,1.19.346,1.215,1.217,0,.094.01.188.017.317h6.747v-2.664h-.789c-.554,0-1.108.013-1.661,0a1,1,0,0,1-1.077-1.11c-.007-.806-.009-1.611,0-2.417a.976.976,0,0,1,1.018-1.067q3.252-.025,6.5,0a.981.981,0,0,1,1.03,1.059c.011.806.009,1.611,0,2.417a1.012,1.012,0,0,1-1.117,1.119c-.789.015-1.579,0-2.41,0V487.9H683.1c1.421,0,1.568.132,1.692,1.557h3.191v-.571q0-6.183,0-12.366a1.756,1.756,0,0,1,1.994-1.969c.79,0,1.58,0,2.391,0,.024-.112.048-.2.06-.288a.979.979,0,0,1,1.046-.943q3.228-.017,6.456,0a.989.989,0,0,1,1.051,1.043q.026,1.256,0,2.511a.965.965,0,0,1-1.01,1.031q-3.274.03-6.55,0a.956.956,0,0,1-.995-1.038c-.01-.28,0-.561,0-.889-.938,0-1.82-.013-2.7.006-.331.007-.319.285-.319.53q0,2.961,0,5.922v1.29h2.961a.836.836,0,0,0,.049-.157c.092-1.216.276-1.386,1.51-1.386q2.871,0,5.744,0c.99,0,1.314.324,1.316,1.3,0,.679,0,1.358,0,2.037,0,.884-.357,1.243-1.232,1.244q-3.015,0-6.029,0c-.971,0-1.264-.286-1.3-1.259C692.419,485.416,692.4,485.326,692.39,485.2ZM671,474.275a2.327,2.327,0,0,0-4.653.01,2.327,2.327,0,1,0,4.653-.01Zm22.89.482v1.7h5.643v-1.7Zm-10.57,3.149h-5.661v1.7h5.661Zm10.55,16.26h5.663v-1.685H693.87Zm-22.35-1.275h-5.662v1.7h5.662Zm0-9.254h-5.67V485.3h5.67Zm22.348,1.672h5.666v-1.67h-5.666Zm-16.2,4.032v1.689h5.646v-1.689Z" fill="#fff"/>
      <path id="Path_223" data-name="Path 223" d="M681.433,472.17c1.359,0,2.718,0,4.077,0,.589,0,.911.268.9.729-.012.442-.325.69-.892.69q-4.077,0-8.153,0c-.589,0-.911-.268-.9-.731.011-.441.324-.687.892-.688C678.715,472.168,680.074,472.17,681.433,472.17Z" fill="#fff"/>
      <path id="Path_224" data-name="Path 224" d="M681.433,494.628q2.039,0,4.076,0c.589,0,.912.268.9.73-.012.441-.325.689-.892.69q-4.075,0-8.153,0c-.589,0-.91-.268-.9-.731.011-.441.324-.687.891-.689C678.715,494.626,680.074,494.628,681.433,494.628Z" fill="#fff"/>
      <path id="Path_225" data-name="Path 225" d="M676.022,472.886a.709.709,0,1,1-.68-.713A.718.718,0,0,1,676.022,472.886Z" fill="#fff"/>
      <path id="Path_226" data-name="Path 226" d="M676.021,495.353a.709.709,0,1,1-.67-.721A.716.716,0,0,1,676.021,495.353Z" fill="#fff"/>
      <path id="Path_227" data-name="Path 227" d="M675.752,462.433v1.932H693.4v-1.932h-.512c-.854,0-1.709.006-2.562-.013a.63.63,0,0,1-.662-.662.666.666,0,0,1,.6-.728,1.4,1.4,0,0,1,.283-.018c2.878,0,5.757-.01,8.636.005a2.315,2.315,0,0,1,2.271,1.493,2.273,2.273,0,0,1-.465,2.548,2.379,2.379,0,0,1-1.867.769c-2.847-.007-5.694,0-8.541,0q-7.64,0-15.279-.01a3.3,3.3,0,0,1-1.141-.234c-.973-.373-1.924-.8-2.89-1.19-.459-.185-.825-.442-.817-.98.006-.512.351-.768.8-.943.749-.294,1.507-.577,2.225-.935A5.659,5.659,0,0,1,676.14,461c3.512.028,7.023.011,10.534.013a2.247,2.247,0,0,1,.563.05.694.694,0,0,1-.091,1.351,3.477,3.477,0,0,1-.521.018H675.752Zm19.142,0V464.4c1.423,0,2.824,0,4.226,0a.989.989,0,1,0,.006-1.964c-1.011-.013-2.021,0-3.032,0Zm-20.613.317-1.616.671,1.616.675Z" fill="#fff"/>
    </g>
  </g>
</svg>
